<svg xmlns="http://www.w3.org/2000/svg" xmlns:xlink="http://www.w3.org/1999/xlink" width="500" zoomAndPan="magnify" viewBox="0 0 375 374.999991" height="500" preserveAspectRatio="xMidYMid meet" version="1.0"><defs><clipPath id="ecf13bb8ff"><path d="M 136.21875 112.5 L 238.96875 112.5 L 238.96875 262.5 L 136.21875 262.5 Z M 136.21875 112.5 " clip-rule="nonzero"/></clipPath></defs><g clip-path="url(#ecf13bb8ff)"><path fill="#000000" d="M 185.039062 115.246094 C 191 111.574219 198.859375 111.753906 205.011719 114.898438 C 207.511719 116.101562 209.589844 118.070312 212.207031 119.042969 C 217.277344 119.902344 222.777344 118.917969 227.527344 121.308594 C 229.242188 122.089844 230.234375 123.730469 231.195312 125.273438 C 226.367188 126.382812 221.542969 127.640625 216.996094 129.632812 C 212.996094 131.25 209.902344 135.5625 210.390625 139.941406 C 211.617188 144.691406 214.644531 148.695312 216.402344 153.242188 C 218.375 157.546875 219.105469 162.3125 221.082031 166.605469 C 224.070312 170.59375 227.546875 174.234375 230.179688 178.492188 C 235.65625 187.152344 238.992188 197.382812 238.753906 207.679688 C 238.933594 209.183594 237.871094 211.316406 236.070312 210.558594 C 233.46875 209.710938 231.941406 207.175781 230.226562 205.203125 C 228.160156 202.363281 225.769531 199.785156 223.328125 197.265625 C 222.738281 212.980469 218.925781 228.609375 212.089844 242.773438 C 216.046875 242.964844 219.976562 242.453125 223.933594 242.453125 C 226.097656 242.539062 228.574219 242.609375 230.15625 244.332031 C 228.007812 245.449219 226.222656 246.878906 225.460938 249.238281 C 221.449219 250.890625 217.011719 251.136719 212.96875 252.722656 C 210.304688 253.460938 207.273438 255.367188 204.617188 253.597656 C 201.933594 251.519531 202.59375 247.570312 200.738281 244.992188 C 197.851562 243.324219 194.28125 243.773438 191.09375 244.046875 C 186.785156 245.085938 183.355469 248.144531 179.304688 249.84375 C 183.035156 251.9375 187.085938 253.4375 190.648438 255.824219 C 191.773438 256.578125 192.832031 258.347656 191.859375 259.597656 C 190.097656 260.527344 187.988281 260 186.085938 260.296875 C 184.738281 260.847656 183.71875 261.980469 182.355469 262.492188 C 178.863281 261.566406 175.84375 259.464844 172.445312 258.292969 C 170.363281 257.285156 167.792969 256.796875 166.289062 254.933594 C 165.46875 252.054688 167.585938 249.359375 168.363281 246.683594 C 167.695312 245.691406 167.019531 244.710938 166.351562 243.734375 C 159.59375 246.535156 151.082031 247.3125 145.042969 242.484375 C 151.492188 238.480469 157.523438 232.132812 157.628906 224.085938 C 157.785156 214.859375 157.195312 205.640625 157.226562 196.414062 C 153.410156 199.191406 150.070312 202.589844 147.277344 206.378906 C 145.34375 208.890625 143.683594 211.636719 141.386719 213.84375 C 140.355469 214.84375 138.664062 215.820312 137.320312 214.789062 C 135.363281 210.925781 136.460938 206.4375 137.195312 202.398438 C 140.230469 188.132812 148.898438 175.695312 159.507812 165.953125 C 161.6875 164.125 162.371094 161.28125 163.355469 158.746094 C 165.511719 152.863281 168.757812 147.476562 171.9375 142.113281 C 174.910156 137.125 174.570312 131.0625 176.796875 125.800781 C 178.480469 121.621094 181.105469 117.613281 185.039062 115.246094 Z M 197.507812 120.816406 C 195.878906 121.71875 195.429688 124.117188 196.847656 125.429688 C 198.113281 127.011719 200.777344 126.476562 201.683594 124.769531 C 203.375 122.433594 199.859375 119.09375 197.507812 120.816406 Z M 184.339844 159.140625 C 178.875 174.699219 182.988281 191.671875 178.253906 207.378906 C 176.496094 213.097656 172.792969 218.761719 166.675781 220.34375 C 166.777344 227.257812 167.671875 234.515625 171.425781 240.492188 C 172.605469 242.285156 174.335938 244.457031 176.789062 243.945312 C 180.605469 243.355469 183.453125 240.40625 187.054688 239.1875 C 191.9375 237.183594 197.484375 237.542969 202.320312 239.527344 C 205.183594 240.988281 208.03125 238.480469 208.871094 235.820312 C 213.144531 224.492188 216.53125 212.648438 216.832031 200.464844 C 217.617188 183.398438 216.414062 165.480469 208.328125 150.082031 C 207.234375 148.265625 206.734375 145.96875 205.128906 144.535156 C 195.605469 142.988281 187.257812 150.648438 184.339844 159.140625 Z M 184.339844 159.140625 " fill-opacity="1" fill-rule="nonzero"/></g></svg>